<?xml version="1.0" standalone="no"?>
<!DOCTYPE svg PUBLIC "-//W3C//DTD SVG 20010904//EN"
 "http://www.w3.org/TR/2001/REC-SVG-20010904/DTD/svg10.dtd">
<svg version="1.0" xmlns="http://www.w3.org/2000/svg"
 width="938.000000pt" height="528.000000pt" viewBox="0 0 938.000000 528.000000"
 preserveAspectRatio="xMidYMid meet">

<g transform="translate(0.000000,528.000000) scale(0.100000,-0.100000)"
fill="#fff" stroke="none">
<path d="M0 2640 l0 -2640 4690 0 4690 0 0 2640 0 2640 -4690 0 -4690 0 0
-2640z m7430 529 c180 -28 318 -155 365 -336 17 -67 20 -272 5 -354 -34 -182
-187 -330 -370 -359 -88 -14 -5178 -14 -5274 0 -167 25 -308 144 -358 303 -27
88 -26 359 2 450 46 148 187 270 340 296 80 13 5207 14 5290 0z"/>
<path d="M2028 3012 l-28 -3 0 -342 c0 -294 2 -346 16 -365 15 -22 16 -22 340
-22 l324 0 0 65 0 65 -270 0 -270 0 0 299 0 299 -42 3 c-24 2 -55 3 -70 1z"/>
<path d="M2723 3003 c-3 -6 -3 -110 -1 -230 4 -197 6 -223 26 -274 32 -80 90
-142 170 -181 l66 -33 219 -3 c195 -3 221 -1 238 14 18 16 19 37 19 365 l0
347 -65 4 -65 3 -2 -300 -3 -300 -150 0 c-149 0 -150 0 -205 31 -44 24 -60 41
-82 84 -28 53 -28 54 -28 266 l0 212 -66 4 c-45 2 -68 -1 -71 -9z"/>
<path d="M3672 3012 c-21 -3 -23 -7 -20 -65 l3 -62 225 -5 c124 -3 231 -9 238
-13 7 -5 12 -32 12 -73 0 -60 -2 -65 -26 -74 -14 -6 -105 -10 -202 -10 -165 0
-180 -2 -217 -23 -24 -14 -50 -40 -65 -67 -23 -41 -25 -57 -28 -192 l-4 -148
341 0 341 0 0 65 0 65 -270 0 -270 0 0 68 c0 103 -2 102 216 102 205 0 240 10
290 75 24 32 29 49 32 112 5 98 -3 137 -40 179 -54 61 -63 63 -309 66 -123 2
-234 2 -247 0z"/>
<path d="M4550 3008 c-161 -27 -227 -240 -112 -361 55 -58 70 -62 294 -67 195
-5 209 -6 229 -26 28 -29 28 -89 0 -118 -21 -20 -31 -21 -296 -24 l-275 -3 0
-64 0 -65 288 0 287 0 51 30 c41 23 58 41 78 82 54 109 22 226 -82 290 -35 22
-50 23 -243 28 -239 6 -249 9 -249 86 0 34 5 47 26 63 25 20 39 21 265 21
l239 0 0 65 c0 45 -4 65 -12 66 -52 5 -454 3 -488 -3z"/>
<path d="M5372 2989 c-70 -35 -105 -71 -141 -149 -23 -51 -25 -66 -25 -195 0
-129 2 -144 25 -195 35 -74 67 -110 131 -145 l53 -30 190 0 190 0 53 30 c64
35 96 71 131 145 24 51 25 65 25 192 -2 206 -39 284 -166 347 -61 31 -61 31
-233 31 -172 0 -172 0 -233 -31z m408 -121 c71 -36 90 -84 90 -223 0 -132 -17
-179 -76 -216 -37 -23 -48 -24 -189 -24 -140 0 -153 2 -188 23 -62 39 -72 68
-72 217 0 152 12 183 84 222 40 21 57 23 175 23 117 0 137 -3 176 -22z"/>
<path d="M6227 3010 c-45 -3 -71 -10 -77 -20 -6 -9 -10 -161 -10 -362 l0 -348
65 0 65 0 0 300 0 300 268 2 267 3 3 63 3 62 -128 1 c-70 0 -186 1 -258 2 -71
1 -161 0 -198 -3z"/>
<path d="M6860 2948 l0 -68 145 0 145 0 0 -300 0 -300 70 0 70 0 0 300 0 300
145 0 146 0 -3 66 -3 67 -358 1 -357 1 0 -67z"/>
<path d="M6320 2645 l0 -65 215 0 215 0 0 65 0 65 -215 0 -215 0 0 -65z"/>
</g>
</svg>
