<svg xmlns="http://www.w3.org/2000/svg" version="1.1" xmlns:xlink="http://www.w3.org/1999/xlink" xmlns:svgjs="http://svgjs.dev/svgjs" width="1000" height="1000" viewBox="0 0 1000 1000"><rect width="1000" height="1000" fill="#000000"></rect><g transform="matrix(0.7,0,0,0.7,149.57575757575756,282.1265587044535)"><svg viewBox="0 0 396 247" data-background-color="#ffffff" preserveAspectRatio="xMidYMid meet" height="623" width="1000" xmlns="http://www.w3.org/2000/svg" xmlns:xlink="http://www.w3.org/1999/xlink"><g id="tight-bounds" transform="matrix(1,0,0,1,0.2400000000000091,-0.09999999999999432)"><svg viewBox="0 0 395.52 247.2" height="247.2" width="395.52"><g><svg></svg></g><g><svg viewBox="0 0 395.52 247.2" height="247.2" width="395.52"><g transform="matrix(1,0,0,1,75.54432,66.34511334174022)"><svg viewBox="0 0 244.43135999999998 114.50977331651954" height="114.50977331651954" width="244.43135999999998"><g><svg viewBox="0 0 244.43135999999998 114.50977331651954" height="114.50977331651954" width="244.43135999999998"><g><svg viewBox="0 0 244.43135999999998 114.50977331651954" height="114.50977331651954" width="244.43135999999998"><g><svg viewBox="0 0 244.43135999999998 114.50977331651954" height="114.50977331651954" width="244.43135999999998"><g id="textblocktransform"><svg viewBox="0 0 244.43135999999998 114.50977331651954" height="114.50977331651954" width="244.43135999999998" id="textblock"><g><svg viewBox="0 0 244.43135999999998 114.50977331651954" height="114.50977331651954" width="244.43135999999998"><g transform="matrix(1,0,0,1,0,0)"><svg width="244.43135999999998" viewBox="5.099999904632568 -36.29999923706055 79.30000305175781 37.14999771118164" height="114.50977331651954" data-palette-color="#000000"><path d="M5.1 0L5.1-36.3 10.45-36.3 10.45-5.15 28.6-5.15 28.6 0 5.1 0ZM41.95 0.85L41.95 0.85Q39.05 0.85 37.2-0.9 35.35-2.65 35.25-5.4L35.25-5.4 35.25-20.95 40.4-20.95 40.4-7.25Q40.5-5.65 41.32-4.63 42.15-3.6 44-3.55L44-3.55Q45.7-3.55 47.02-4.58 48.35-5.6 49.12-7.38 49.9-9.15 49.9-11.45L49.9-11.45 49.9-20.95 55.05-20.95 55.05 0 50.4 0 50-4.85 50.2-4.05Q49.55-2.65 48.35-1.53 47.15-0.4 45.5 0.23 43.85 0.85 41.95 0.85ZM84.4 0L61.7 0Q64.8-3.15 67.7-6.1 70.59-9.05 72.92-11.85 75.25-14.65 76.57-17.25 77.9-19.85 77.9-22.3L77.9-22.3Q77.9-23.8 77.42-24.93 76.95-26.05 76.09-26.78 75.25-27.5 74.2-27.88 73.15-28.25 71.95-28.25L71.95-28.25Q70.4-28.25 69.3-27.75 68.2-27.25 67.52-26.48 66.84-25.7 66.5-24.8 66.15-23.9 66.15-23L66.15-23Q66.15-21.35 66.67-20.05 67.2-18.75 68.09-17.8L68.09-17.8 64.84-14.8Q63.6-15.55 62.72-16.98 61.85-18.4 61.4-20 60.95-21.6 60.95-22.85L60.95-22.85Q60.95-25.6 62.32-27.98 63.7-30.35 66.37-31.85 69.05-33.35 72.84-33.35L72.84-33.35Q76.05-33.35 78.42-31.9 80.8-30.45 82.12-28.03 83.45-25.6 83.45-22.75L83.45-22.75Q83.45-20.3 82.5-17.95 81.55-15.6 79.97-13.33 78.4-11.05 76.47-8.83 74.55-6.6 72.65-4.35L72.65-4.35 70.25-5.15 84.4-5.15 84.4 0Z" opacity="1" transform="matrix(1,0,0,1,0,0)" fill="#ffffff" class="wordmark-text-0" data-fill-palette-color="primary" id="text-0"></path></svg></g></svg></g></svg></g></svg></g></svg></g></svg></g></svg></g><path d="M235.73 60.345L235.73 11.454 11.438 11.454 11.438 235.746 235.73 235.746 235.73 186.855 225.403 186.855 225.403 225.419 21.765 225.419 21.765 21.781 225.403 21.781 225.403 60.345Z" fill="#ffffff" stroke="transparent" data-fill-palette-color="primary"></path></svg></g><defs></defs></svg><rect width="395.52" height="247.2" fill="none" stroke="none" visibility="hidden"></rect></g></svg></g></svg>